# Wavefront OBJ file made by Mineways version 7.20, http://mineways.com
# Minecraft world: New World (1)
# Terrain file name: default
# Color scheme: Standard
# Tue Dec  1 23:32:42 2020

# Selection location min to max: -654, 64, -139 to -645, 255, -131
#   Non-empty selection location min to max: -654, 67, -138 to -645, 70, -131

# Set render type: Wavefront OBJ absolute indices
# Units for the model vertex data itself: meters

# 92 vertices, 84 faces (168 triangles), 21 blocks, 0 billboards/bits
# block dimensions: X=10 by Y=4 (height) by Z=8 blocks
# Elevation shading: no
# Lighting: no
# File type: Export full color texture patterns
# Texture output RGB: YES
# Texture output A: YES
# Texture output RGBA: YES
# Make groups objects: no
# Export separate objects: YES
# Individual blocks: no
#   Material per family: YES
#   Split by block type: no
# G3D full material: no
# Make Z the up direction instead of Y: YES
# Create composite overlay faces: no
# Center model: YES
# Export lesser blocks: YES
# Fatten lesser blocks: no
# Create block faces at the borders: YES
# Make tree leaves solid: no
# Use biomes: no
# Rotate model 0.000000 degrees
# Scale model by making each block 1000 mm high
# Data operation options:
#   Fill air bubbles: no; Seal off entrances: no; Fill in isolated tunnels in base of model: no
#   Connect parts sharing an edge: no; Connect corner tips: no; Weld all shared edges: no
#   Delete floating objects: trees and parts smaller than 16 blocks: no
#   Hollow out bottom of model, making the walls 1000 mm thick: no; Superhollow: no
# Melt snow blocks: no
#   Debug: show separate parts as colors: no
#   Debug: show weld blocks in bright colors: no

# Full world path: C:\Users\lambe\AppData\Roaming\.minecraft\saves\New World (1)
# Full terrainExt.png path: default
# Full current path: C:\Users\lambe\Downloads\minewaysV720min\mineways_min

mtllib house_glass.mtl

o New_World_(1)__-654_64_-139_to_-645_255_-131
vn -1 -0 0
vn 0 -0 -1
vn 0 1 0
vn 1 -0 0
vn 0 -0 1
vn 0 -1 0
vn -0.707107 0.707107 0
vn -0.707107 -0.707107 0
vn 0.707107 0.707107 0
vn 0.707107 -0.707107 0
vn -0.707107 -0 -0.707107
vn 0 0.707107 -0.707107
vn 0.707107 -0 -0.707107
vn 0 -0.707107 -0.707107
vn -0.707107 -0 0.707107
vn 0 0.707107 0.707107
vn 0.707107 -0 0.707107
vn 0 -0.707107 0.707107
vn -0.92388 0.382683 0
vn -0.92388 -0.382683 0
vn 0.92388 0.382683 0
vn 0.92388 -0.382683 0
vn -0.382683 0.92388 0
vn -0.382683 -0.92388 0
vn 0.382683 0.92388 0
vn 0.382683 -0.92388 0
vn -0.397273 -0 0.9177
vn 0.397273 -0 -0.9177
vn 0.397273 -0 0.9177
vn -0.397273 -0 -0.9177
vn 0 0.397273 0.9177
vn 0 -0.397273 -0.9177
vn 0 -0.397273 0.9177
vn 0 0.397273 -0.9177
vn -0.440932 -0 0.897541
vn 0.440932 -0 -0.897541
vn 0.440932 -0 0.897541
vn -0.440932 -0 -0.897541
vn 0 0.440932 0.897541
vn 0 -0.440932 -0.897541
vn 0 -0.440932 0.897541
vn 0 0.440932 -0.897541
# white_stained_glass
vt 0.423828125 0.580078125
vt 0.455078125 0.580078125
vt 0.455078125 0.611328125
vt 0.423828125 0.611328125
v -5 -2 3
v -5 -3 3
v -5 -3 4
v -5 -2 4
v -4 -3 3
v -4 -2 3
v -4 -2 4
v -4 -3 4
v -5 -4 3
v -5 -4 4
v -4 -4 3
v -4 -4 4
v -4 -5 3
v -4 -5 4
v -3 -5 3
v -3 -4 3
v -3 -4 4
v -3 -5 4
v -2 -5 3
v -2 -4 3
v -2 -4 4
v -2 -5 4
v 1 -4 3
v 1 -5 3
v 1 -5 4
v 1 -4 4
v 2 -5 3
v 2 -4 3
v 2 -4 4
v 2 -5 4
v 3 -5 3
v 3 -4 3
v 3 -4 4
v 3 -5 4
v 4 -5 3
v 4 -4 3
v 4 -4 4
v 4 -5 4
v 4 3 3
v 4 2 3
v 4 2 4
v 4 3 4
v 5 2 3
v 5 3 3
v 5 3 4
v 5 2 4
v 4 1 3
v 4 -0 3
v 4 -0 4
v 4 1 4
v 5 -0 3
v 5 1 3
v 5 1 4
v 5 -0 4
v 4 -0 5
v 4 1 5
v 5 1 5
v 5 -0 5
v 4 -0 6
v 4 1 6
v 5 1 6
v 5 -0 6
v 4 -0 7
v 4 1 7
v 5 1 7
v 5 -0 7
v 4 -1 3
v 4 -1 4
v 5 -1 3
v 5 -1 4
v 4 -1 5
v 5 -1 5
v 4 -1 6
v 5 -1 6
v 4 -1 7
v 5 -1 7
v 4 -2 3
v 4 -2 4
v 5 -2 3
v 5 -2 4
v 4 -2 5
v 5 -2 5
v 4 -2 6
v 5 -2 6
v 4 -2 7
v 5 -2 7
v 4 -3 3
v 4 -3 4
v 5 -4 3
v 5 -3 3
v 5 -3 4
v 5 -4 4

g Stained_Glass
usemtl Stained_Glass
f 2/2/1 3/3/1 4/4/1 1/1/1
f 2/1/2 1/4/2 6/3/2 5/2/2
f 6/1/3 1/2/3 4/3/3 7/4/3
f 5/1/4 6/2/4 7/3/4 8/4/4
f 3/1/5 8/2/5 7/3/5 4/4/5
f 9/2/1 10/3/1 3/4/1 2/1/1
f 9/1/2 2/4/2 5/3/2 11/2/2
f 11/1/4 5/2/4 8/3/4 12/4/4
f 10/1/5 12/2/5 8/3/5 3/4/5
f 11/2/6 12/3/6 10/4/6 9/1/6
f 13/2/1 14/3/1 12/4/1 11/1/1
f 13/1/2 11/4/2 16/3/2 15/2/2
f 16/1/3 11/2/3 12/3/3 17/4/3
f 14/1/5 18/2/5 17/3/5 12/4/5
f 15/2/6 18/3/6 14/4/6 13/1/6
f 15/1/2 16/4/2 20/3/2 19/2/2
f 20/1/3 16/2/3 17/3/3 21/4/3
f 19/1/4 20/2/4 21/3/4 22/4/4
f 18/1/5 22/2/5 21/3/5 17/4/5
f 19/2/6 22/3/6 18/4/6 15/1/6
f 24/2/1 25/3/1 26/4/1 23/1/1
f 24/1/2 23/4/2 28/3/2 27/2/2
f 28/1/3 23/2/3 26/3/3 29/4/3
f 25/1/5 30/2/5 29/3/5 26/4/5
f 27/2/6 30/3/6 25/4/6 24/1/6
f 27/1/2 28/4/2 32/3/2 31/2/2
f 32/1/3 28/2/3 29/3/3 33/4/3
f 30/1/5 34/2/5 33/3/5 29/4/5
f 31/2/6 34/3/6 30/4/6 27/1/6
f 31/1/2 32/4/2 36/3/2 35/2/2
f 36/1/3 32/2/3 33/3/3 37/4/3
f 35/1/4 36/2/4 37/3/4 38/4/4
f 34/1/5 38/2/5 37/3/5 33/4/5
f 35/2/6 38/3/6 34/4/6 31/1/6
f 40/2/1 41/3/1 42/4/1 39/1/1
f 40/1/2 39/4/2 44/3/2 43/2/2
f 44/1/3 39/2/3 42/3/3 45/4/3
f 43/1/4 44/2/4 45/3/4 46/4/4
f 41/1/5 46/2/5 45/3/5 42/4/5
f 43/2/6 46/3/6 41/4/6 40/1/6
f 48/2/1 49/3/1 50/4/1 47/1/1
f 48/1/2 47/4/2 52/3/2 51/2/2
f 52/1/3 47/2/3 50/3/3 53/4/3
f 51/1/4 52/2/4 53/3/4 54/4/4
f 49/2/1 55/3/1 56/4/1 50/1/1
f 53/1/3 50/2/3 56/3/3 57/4/3
f 54/1/4 53/2/4 57/3/4 58/4/4
f 55/2/1 59/3/1 60/4/1 56/1/1
f 57/1/3 56/2/3 60/3/3 61/4/3
f 58/1/4 57/2/4 61/3/4 62/4/4
f 59/2/1 63/3/1 64/4/1 60/1/1
f 61/1/3 60/2/3 64/3/3 65/4/3
f 62/1/4 61/2/4 65/3/4 66/4/4
f 63/1/5 66/2/5 65/3/5 64/4/5
f 67/2/1 68/3/1 49/4/1 48/1/1
f 67/1/2 48/4/2 51/3/2 69/2/2
f 69/1/4 51/2/4 54/3/4 70/4/4
f 68/2/1 71/3/1 55/4/1 49/1/1
f 70/1/4 54/2/4 58/3/4 72/4/4
f 71/2/1 73/3/1 59/4/1 55/1/1
f 72/1/4 58/2/4 62/3/4 74/4/4
f 73/2/1 75/3/1 63/4/1 59/1/1
f 74/1/4 62/2/4 66/3/4 76/4/4
f 75/1/5 76/2/5 66/3/5 63/4/5
f 77/2/1 78/3/1 68/4/1 67/1/1
f 77/1/2 67/4/2 69/3/2 79/2/2
f 79/1/4 69/2/4 70/3/4 80/4/4
f 79/2/6 80/3/6 78/4/6 77/1/6
f 78/2/1 81/3/1 71/4/1 68/1/1
f 80/1/4 70/2/4 72/3/4 82/4/4
f 80/2/6 82/3/6 81/4/6 78/1/6
f 81/2/1 83/3/1 73/4/1 71/1/1
f 82/1/4 72/2/4 74/3/4 84/4/4
f 82/2/6 84/3/6 83/4/6 81/1/6
f 83/2/1 85/3/1 75/4/1 73/1/1
f 84/1/4 74/2/4 76/3/4 86/4/4
f 85/1/5 86/2/5 76/3/5 75/4/5
f 84/2/6 86/3/6 85/4/6 83/1/6
f 36/2/1 37/3/1 88/4/1 87/1/1
f 36/1/2 87/4/2 90/3/2 89/2/2
f 90/1/3 87/2/3 88/3/3 91/4/3
f 89/1/4 90/2/4 91/3/4 92/4/4
f 37/1/5 92/2/5 91/3/5 88/4/5
f 89/2/6 92/3/6 37/4/6 36/1/6
